<?xml version="1.0" encoding="utf-8" standalone="no"?>
<!DOCTYPE svg PUBLIC "-//W3C//DTD SVG 1.1//EN"
  "http://www.w3.org/Graphics/SVG/1.1/DTD/svg11.dtd">
<svg xmlns:xlink="http://www.w3.org/1999/xlink" width="684pt" height="280.512pt" viewBox="0 0 684 280.512" xmlns="http://www.w3.org/2000/svg" version="1.1">
 <metadata>
  <rdf:RDF xmlns:dc="http://purl.org/dc/elements/1.1/" xmlns:cc="http://creativecommons.org/ns#" xmlns:rdf="http://www.w3.org/1999/02/22-rdf-syntax-ns#">
   <cc:Work>
    <dc:type rdf:resource="http://purl.org/dc/dcmitype/StillImage"/>
    <dc:date>2026-05-18T13:32:24.148881</dc:date>
    <dc:format>image/svg+xml</dc:format>
    <dc:creator>
     <cc:Agent>
      <dc:title>Matplotlib v3.10.8, https://matplotlib.org/</dc:title>
     </cc:Agent>
    </dc:creator>
   </cc:Work>
  </rdf:RDF>
 </metadata>
 <defs>
  <style type="text/css">*{stroke-linejoin: round; stroke-linecap: butt}</style>
 </defs>
 <g id="figure_1">
  <g id="patch_1">
   <path d="M 0 280.512 
L 684 280.512 
L 684 0 
L 0 0 
z
" style="fill: #ffffff"/>
  </g>
  <g id="axes_1">
   <g id="patch_2">
    <path d="M 2.178 161.54496 
L 92.574 161.54496 
Q 105.966 161.54496 105.966 156.22272 
L 105.966 97.67808 
Q 105.966 92.35584 92.574 92.35584 
L 2.178 92.35584 
Q -11.214 92.35584 -11.214 97.67808 
Q -11.214 161.54496 2.178 161.54496 
L 2.178 161.54496 
" clip-path="url(#p086ca9689a)" style="fill: none; stroke: #000000; stroke-width: 1.2; stroke-linejoin: miter"/>
   </g>
   <g id="patch_3">
    <path d="M 109.314 161.54496 
L 199.71 161.54496 
Q 213.102 161.54496 213.102 156.22272 
L 213.102 97.67808 
Q 213.102 92.35584 199.71 92.35584 
L 109.314 92.35584 
Q 95.922 92.35584 95.922 97.67808 
L 95.922 156.22272 
Q 95.922 161.54496 109.314 161.54496 
L 109.314 161.54496 
z
" clip-path="url(#p086ca9689a)" style="fill: none; stroke: #000000; stroke-width: 1.2; stroke-linejoin: miter"/>
   </g>
   <g id="patch_4">
    <path d="M 229.842 161.54496 
L 320.238 161.54496 
Q 333.63 161.54496 333.63 156.22272 
L 333.63 97.67808 
Q 333.63 92.35584 320.238 92.35584 
L 229.842 92.35584 
Q 216.45 92.35584 216.45 97.67808 
L 216.45 156.22272 
Q 216.45 161.54496 229.842 161.54496 
L 229.842 161.54496 
z
" clip-path="url(#p086ca9689a)" style="fill: none; stroke: #000000; stroke-width: 1.2; stroke-linejoin: miter"/>
   </g>
   <g id="patch_5">
    <path d="M 343.674 161.54496 
L 434.07 161.54496 
Q 447.462 161.54496 447.462 156.22272 
L 447.462 97.67808 
Q 447.462 92.35584 434.07 92.35584 
L 343.674 92.35584 
Q 330.282 92.35584 330.282 97.67808 
L 330.282 156.22272 
Q 330.282 161.54496 343.674 161.54496 
L 343.674 161.54496 
z
" clip-path="url(#p086ca9689a)" style="fill: none; stroke: #000000; stroke-width: 1.2; stroke-linejoin: miter"/>
   </g>
   <g id="patch_6">
    <path d="M 457.506 161.54496 
L 547.902 161.54496 
Q 561.294 161.54496 561.294 156.22272 
L 561.294 97.67808 
Q 561.294 92.35584 547.902 92.35584 
L 457.506 92.35584 
Q 444.114 92.35584 444.114 97.67808 
L 444.114 156.22272 
Q 444.114 161.54496 457.506 161.54496 
L 457.506 161.54496 
z
" clip-path="url(#p086ca9689a)" style="fill: none; stroke: #000000; stroke-width: 1.2; stroke-linejoin: miter"/>
   </g>
   <g id="patch_7">
    <path d="M 564.642 161.54496 
L 655.038 161.54496 
Q 668.43 161.54496 668.43 156.22272 
L 668.43 97.67808 
Q 668.43 92.35584 655.038 92.35584 
L 564.642 92.35584 
Q 551.25 92.35584 551.25 97.67808 
L 551.25 156.22272 
Q 551.25 161.54496 564.642 161.54496 
L 564.642 161.54496 
z
" clip-path="url(#p086ca9689a)" style="fill: none; stroke: #000000; stroke-width: 1.2; stroke-linejoin: miter"/>
   </g>
   <g id="patch_8">
    <path d="M 94.572501 126.9504 
Q 100.944528 126.9504 106.086718 126.9504 
" clip-path="url(#p086ca9689a)" style="fill: none; stroke: #000000; stroke-width: 1.1; stroke-linecap: round"/>
    <path d="M 101.286718 124.5504 
L 106.086718 126.9504 
L 101.286718 129.3504 
" clip-path="url(#p086ca9689a)" style="fill: none; stroke: #000000; stroke-width: 1.1; stroke-linecap: round"/>
   </g>
   <g id="patch_9">
    <path d="M 201.707275 126.9504 
Q 214.773506 126.9504 226.609899 126.9504 
" clip-path="url(#p086ca9689a)" style="fill: none; stroke: #000000; stroke-width: 1.1; stroke-linecap: round"/>
    <path d="M 221.809899 124.5504 
L 226.609899 126.9504 
L 221.809899 129.3504 
" clip-path="url(#p086ca9689a)" style="fill: none; stroke: #000000; stroke-width: 1.1; stroke-linecap: round"/>
   </g>
   <g id="patch_10">
    <path d="M 322.237727 126.9504 
Q 331.954963 126.9504 340.442362 126.9504 
" clip-path="url(#p086ca9689a)" style="fill: none; stroke: #000000; stroke-width: 1.1; stroke-linecap: round"/>
    <path d="M 335.642362 124.5504 
L 340.442362 126.9504 
L 335.642362 129.3504 
" clip-path="url(#p086ca9689a)" style="fill: none; stroke: #000000; stroke-width: 1.1; stroke-linecap: round"/>
   </g>
   <g id="patch_11">
    <path d="M 436.069727 126.9504 
Q 445.786963 126.9504 454.274362 126.9504 
" clip-path="url(#p086ca9689a)" style="fill: none; stroke: #000000; stroke-width: 1.1; stroke-linecap: round"/>
    <path d="M 449.474362 124.5504 
L 454.274362 126.9504 
L 449.474362 129.3504 
" clip-path="url(#p086ca9689a)" style="fill: none; stroke: #000000; stroke-width: 1.1; stroke-linecap: round"/>
   </g>
   <g id="patch_12">
    <path d="M 549.900501 126.9504 
Q 556.272528 126.9504 561.414718 126.9504 
" clip-path="url(#p086ca9689a)" style="fill: none; stroke: #000000; stroke-width: 1.1; stroke-linecap: round"/>
    <path d="M 556.614718 124.5504 
L 561.414718 126.9504 
L 556.614718 129.3504 
" clip-path="url(#p086ca9689a)" style="fill: none; stroke: #000000; stroke-width: 1.1; stroke-linecap: round"/>
   </g>
   <g id="text_1">
    <!-- FedMultimodal -->
    <g transform="translate(10.746313 124.110869) scale(0.1 -0.1)">
     <defs>
      <path id="DejaVuSans-46" d="M 628 4666 
L 3309 4666 
L 3309 4134 
L 1259 4134 
L 1259 2759 
L 3109 2759 
L 3109 2228 
L 1259 2228 
L 1259 0 
L 628 0 
L 628 4666 
z
" transform="scale(0.015625)"/>
      <path id="DejaVuSans-65" d="M 3597 1894 
L 3597 1613 
L 953 1613 
Q 991 1019 1311 708 
Q 1631 397 2203 397 
Q 2534 397 2845 478 
Q 3156 559 3463 722 
L 3463 178 
Q 3153 47 2828 -22 
Q 2503 -91 2169 -91 
Q 1331 -91 842 396 
Q 353 884 353 1716 
Q 353 2575 817 3079 
Q 1281 3584 2069 3584 
Q 2775 3584 3186 3129 
Q 3597 2675 3597 1894 
z
M 3022 2063 
Q 3016 2534 2758 2815 
Q 2500 3097 2075 3097 
Q 1594 3097 1305 2825 
Q 1016 2553 972 2059 
L 3022 2063 
z
" transform="scale(0.015625)"/>
      <path id="DejaVuSans-64" d="M 2906 2969 
L 2906 4863 
L 3481 4863 
L 3481 0 
L 2906 0 
L 2906 525 
Q 2725 213 2448 61 
Q 2172 -91 1784 -91 
Q 1150 -91 751 415 
Q 353 922 353 1747 
Q 353 2572 751 3078 
Q 1150 3584 1784 3584 
Q 2172 3584 2448 3432 
Q 2725 3281 2906 2969 
z
M 947 1747 
Q 947 1113 1208 752 
Q 1469 391 1925 391 
Q 2381 391 2643 752 
Q 2906 1113 2906 1747 
Q 2906 2381 2643 2742 
Q 2381 3103 1925 3103 
Q 1469 3103 1208 2742 
Q 947 2381 947 1747 
z
" transform="scale(0.015625)"/>
      <path id="DejaVuSans-4d" d="M 628 4666 
L 1569 4666 
L 2759 1491 
L 3956 4666 
L 4897 4666 
L 4897 0 
L 4281 0 
L 4281 4097 
L 3078 897 
L 2444 897 
L 1241 4097 
L 1241 0 
L 628 0 
L 628 4666 
z
" transform="scale(0.015625)"/>
      <path id="DejaVuSans-75" d="M 544 1381 
L 544 3500 
L 1119 3500 
L 1119 1403 
Q 1119 906 1312 657 
Q 1506 409 1894 409 
Q 2359 409 2629 706 
Q 2900 1003 2900 1516 
L 2900 3500 
L 3475 3500 
L 3475 0 
L 2900 0 
L 2900 538 
Q 2691 219 2414 64 
Q 2138 -91 1772 -91 
Q 1169 -91 856 284 
Q 544 659 544 1381 
z
M 1991 3584 
L 1991 3584 
z
" transform="scale(0.015625)"/>
      <path id="DejaVuSans-6c" d="M 603 4863 
L 1178 4863 
L 1178 0 
L 603 0 
L 603 4863 
z
" transform="scale(0.015625)"/>
      <path id="DejaVuSans-74" d="M 1172 4494 
L 1172 3500 
L 2356 3500 
L 2356 3053 
L 1172 3053 
L 1172 1153 
Q 1172 725 1289 603 
Q 1406 481 1766 481 
L 2356 481 
L 2356 0 
L 1766 0 
Q 1100 0 847 248 
Q 594 497 594 1153 
L 594 3053 
L 172 3053 
L 172 3500 
L 594 3500 
L 594 4494 
L 1172 4494 
z
" transform="scale(0.015625)"/>
      <path id="DejaVuSans-69" d="M 603 3500 
L 1178 3500 
L 1178 0 
L 603 0 
L 603 3500 
z
M 603 4863 
L 1178 4863 
L 1178 4134 
L 603 4134 
L 603 4863 
z
" transform="scale(0.015625)"/>
      <path id="DejaVuSans-6d" d="M 3328 2828 
Q 3544 3216 3844 3400 
Q 4144 3584 4550 3584 
Q 5097 3584 5394 3201 
Q 5691 2819 5691 2113 
L 5691 0 
L 5113 0 
L 5113 2094 
Q 5113 2597 4934 2840 
Q 4756 3084 4391 3084 
Q 3944 3084 3684 2787 
Q 3425 2491 3425 1978 
L 3425 0 
L 2847 0 
L 2847 2094 
Q 2847 2600 2669 2842 
Q 2491 3084 2119 3084 
Q 1678 3084 1418 2786 
Q 1159 2488 1159 1978 
L 1159 0 
L 581 0 
L 581 3500 
L 1159 3500 
L 1159 2956 
Q 1356 3278 1631 3431 
Q 1906 3584 2284 3584 
Q 2666 3584 2933 3390 
Q 3200 3197 3328 2828 
z
" transform="scale(0.015625)"/>
      <path id="DejaVuSans-6f" d="M 1959 3097 
Q 1497 3097 1228 2736 
Q 959 2375 959 1747 
Q 959 1119 1226 758 
Q 1494 397 1959 397 
Q 2419 397 2687 759 
Q 2956 1122 2956 1747 
Q 2956 2369 2687 2733 
Q 2419 3097 1959 3097 
z
M 1959 3584 
Q 2709 3584 3137 3096 
Q 3566 2609 3566 1747 
Q 3566 888 3137 398 
Q 2709 -91 1959 -91 
Q 1206 -91 779 398 
Q 353 888 353 1747 
Q 353 2609 779 3096 
Q 1206 3584 1959 3584 
z
" transform="scale(0.015625)"/>
      <path id="DejaVuSans-61" d="M 2194 1759 
Q 1497 1759 1228 1600 
Q 959 1441 959 1056 
Q 959 750 1161 570 
Q 1363 391 1709 391 
Q 2188 391 2477 730 
Q 2766 1069 2766 1631 
L 2766 1759 
L 2194 1759 
z
M 3341 1997 
L 3341 0 
L 2766 0 
L 2766 531 
Q 2569 213 2275 61 
Q 1981 -91 1556 -91 
Q 1019 -91 701 211 
Q 384 513 384 1019 
Q 384 1609 779 1909 
Q 1175 2209 1959 2209 
L 2766 2209 
L 2766 2266 
Q 2766 2663 2505 2880 
Q 2244 3097 1772 3097 
Q 1472 3097 1187 3025 
Q 903 2953 641 2809 
L 641 3341 
Q 956 3463 1253 3523 
Q 1550 3584 1831 3584 
Q 2591 3584 2966 3190 
Q 3341 2797 3341 1997 
z
" transform="scale(0.015625)"/>
     </defs>
     <use xlink:href="#DejaVuSans-46"/>
     <use xlink:href="#DejaVuSans-65" transform="translate(52.019531 0)"/>
     <use xlink:href="#DejaVuSans-64" transform="translate(113.542969 0)"/>
     <use xlink:href="#DejaVuSans-4d" transform="translate(177.019531 0)"/>
     <use xlink:href="#DejaVuSans-75" transform="translate(263.298828 0)"/>
     <use xlink:href="#DejaVuSans-6c" transform="translate(326.677734 0)"/>
     <use xlink:href="#DejaVuSans-74" transform="translate(354.460938 0)"/>
     <use xlink:href="#DejaVuSans-69" transform="translate(393.669922 0)"/>
     <use xlink:href="#DejaVuSans-6d" transform="translate(421.453125 0)"/>
     <use xlink:href="#DejaVuSans-6f" transform="translate(518.865234 0)"/>
     <use xlink:href="#DejaVuSans-64" transform="translate(580.046875 0)"/>
     <use xlink:href="#DejaVuSans-61" transform="translate(643.523438 0)"/>
     <use xlink:href="#DejaVuSans-6c" transform="translate(704.802734 0)"/>
    </g>
    <!-- UCI-HAR -->
    <g transform="translate(26.291625 135.308681) scale(0.1 -0.1)">
     <defs>
      <path id="DejaVuSans-55" d="M 556 4666 
L 1191 4666 
L 1191 1831 
Q 1191 1081 1462 751 
Q 1734 422 2344 422 
Q 2950 422 3222 751 
Q 3494 1081 3494 1831 
L 3494 4666 
L 4128 4666 
L 4128 1753 
Q 4128 841 3676 375 
Q 3225 -91 2344 -91 
Q 1459 -91 1007 375 
Q 556 841 556 1753 
L 556 4666 
z
" transform="scale(0.015625)"/>
      <path id="DejaVuSans-43" d="M 4122 4306 
L 4122 3641 
Q 3803 3938 3442 4084 
Q 3081 4231 2675 4231 
Q 1875 4231 1450 3742 
Q 1025 3253 1025 2328 
Q 1025 1406 1450 917 
Q 1875 428 2675 428 
Q 3081 428 3442 575 
Q 3803 722 4122 1019 
L 4122 359 
Q 3791 134 3420 21 
Q 3050 -91 2638 -91 
Q 1578 -91 968 557 
Q 359 1206 359 2328 
Q 359 3453 968 4101 
Q 1578 4750 2638 4750 
Q 3056 4750 3426 4639 
Q 3797 4528 4122 4306 
z
" transform="scale(0.015625)"/>
      <path id="DejaVuSans-49" d="M 628 4666 
L 1259 4666 
L 1259 0 
L 628 0 
L 628 4666 
z
" transform="scale(0.015625)"/>
      <path id="DejaVuSans-2d" d="M 313 2009 
L 1997 2009 
L 1997 1497 
L 313 1497 
L 313 2009 
z
" transform="scale(0.015625)"/>
      <path id="DejaVuSans-48" d="M 628 4666 
L 1259 4666 
L 1259 2753 
L 3553 2753 
L 3553 4666 
L 4184 4666 
L 4184 0 
L 3553 0 
L 3553 2222 
L 1259 2222 
L 1259 0 
L 628 0 
L 628 4666 
z
" transform="scale(0.015625)"/>
      <path id="DejaVuSans-41" d="M 2188 4044 
L 1331 1722 
L 3047 1722 
L 2188 4044 
z
M 1831 4666 
L 2547 4666 
L 4325 0 
L 3669 0 
L 3244 1197 
L 1141 1197 
L 716 0 
L 50 0 
L 1831 4666 
z
" transform="scale(0.015625)"/>
      <path id="DejaVuSans-52" d="M 2841 2188 
Q 3044 2119 3236 1894 
Q 3428 1669 3622 1275 
L 4263 0 
L 3584 0 
L 2988 1197 
Q 2756 1666 2539 1819 
Q 2322 1972 1947 1972 
L 1259 1972 
L 1259 0 
L 628 0 
L 628 4666 
L 2053 4666 
Q 2853 4666 3247 4331 
Q 3641 3997 3641 3322 
Q 3641 2881 3436 2590 
Q 3231 2300 2841 2188 
z
M 1259 4147 
L 1259 2491 
L 2053 2491 
Q 2509 2491 2742 2702 
Q 2975 2913 2975 3322 
Q 2975 3731 2742 3939 
Q 2509 4147 2053 4147 
L 1259 4147 
z
" transform="scale(0.015625)"/>
     </defs>
     <use xlink:href="#DejaVuSans-55"/>
     <use xlink:href="#DejaVuSans-43" transform="translate(73.193359 0)"/>
     <use xlink:href="#DejaVuSans-49" transform="translate(143.017578 0)"/>
     <use xlink:href="#DejaVuSans-2d" transform="translate(172.509766 0)"/>
     <use xlink:href="#DejaVuSans-48" transform="translate(208.59375 0)"/>
     <use xlink:href="#DejaVuSans-41" transform="translate(283.789062 0)"/>
     <use xlink:href="#DejaVuSans-52" transform="translate(352.197266 0)"/>
    </g>
   </g>
   <g id="text_2">
    <!-- Aligned runs -->
    <g transform="translate(123.133094 123.971806) scale(0.1 -0.1)">
     <defs>
      <path id="DejaVuSans-67" d="M 2906 1791 
Q 2906 2416 2648 2759 
Q 2391 3103 1925 3103 
Q 1463 3103 1205 2759 
Q 947 2416 947 1791 
Q 947 1169 1205 825 
Q 1463 481 1925 481 
Q 2391 481 2648 825 
Q 2906 1169 2906 1791 
z
M 3481 434 
Q 3481 -459 3084 -895 
Q 2688 -1331 1869 -1331 
Q 1566 -1331 1297 -1286 
Q 1028 -1241 775 -1147 
L 775 -588 
Q 1028 -725 1275 -790 
Q 1522 -856 1778 -856 
Q 2344 -856 2625 -561 
Q 2906 -266 2906 331 
L 2906 616 
Q 2728 306 2450 153 
Q 2172 0 1784 0 
Q 1141 0 747 490 
Q 353 981 353 1791 
Q 353 2603 747 3093 
Q 1141 3584 1784 3584 
Q 2172 3584 2450 3431 
Q 2728 3278 2906 2969 
L 2906 3500 
L 3481 3500 
L 3481 434 
z
" transform="scale(0.015625)"/>
      <path id="DejaVuSans-6e" d="M 3513 2113 
L 3513 0 
L 2938 0 
L 2938 2094 
Q 2938 2591 2744 2837 
Q 2550 3084 2163 3084 
Q 1697 3084 1428 2787 
Q 1159 2491 1159 1978 
L 1159 0 
L 581 0 
L 581 3500 
L 1159 3500 
L 1159 2956 
Q 1366 3272 1645 3428 
Q 1925 3584 2291 3584 
Q 2894 3584 3203 3211 
Q 3513 2838 3513 2113 
z
" transform="scale(0.015625)"/>
      <path id="DejaVuSans-20" transform="scale(0.015625)"/>
      <path id="DejaVuSans-72" d="M 2631 2963 
Q 2534 3019 2420 3045 
Q 2306 3072 2169 3072 
Q 1681 3072 1420 2755 
Q 1159 2438 1159 1844 
L 1159 0 
L 581 0 
L 581 3500 
L 1159 3500 
L 1159 2956 
Q 1341 3275 1631 3429 
Q 1922 3584 2338 3584 
Q 2397 3584 2469 3576 
Q 2541 3569 2628 3553 
L 2631 2963 
z
" transform="scale(0.015625)"/>
      <path id="DejaVuSans-73" d="M 2834 3397 
L 2834 2853 
Q 2591 2978 2328 3040 
Q 2066 3103 1784 3103 
Q 1356 3103 1142 2972 
Q 928 2841 928 2578 
Q 928 2378 1081 2264 
Q 1234 2150 1697 2047 
L 1894 2003 
Q 2506 1872 2764 1633 
Q 3022 1394 3022 966 
Q 3022 478 2636 193 
Q 2250 -91 1575 -91 
Q 1294 -91 989 -36 
Q 684 19 347 128 
L 347 722 
Q 666 556 975 473 
Q 1284 391 1588 391 
Q 1994 391 2212 530 
Q 2431 669 2431 922 
Q 2431 1156 2273 1281 
Q 2116 1406 1581 1522 
L 1381 1569 
Q 847 1681 609 1914 
Q 372 2147 372 2553 
Q 372 3047 722 3315 
Q 1072 3584 1716 3584 
Q 2034 3584 2315 3537 
Q 2597 3491 2834 3397 
z
" transform="scale(0.015625)"/>
     </defs>
     <use xlink:href="#DejaVuSans-41"/>
     <use xlink:href="#DejaVuSans-6c" transform="translate(68.408203 0)"/>
     <use xlink:href="#DejaVuSans-69" transform="translate(96.191406 0)"/>
     <use xlink:href="#DejaVuSans-67" transform="translate(123.974609 0)"/>
     <use xlink:href="#DejaVuSans-6e" transform="translate(187.451172 0)"/>
     <use xlink:href="#DejaVuSans-65" transform="translate(250.830078 0)"/>
     <use xlink:href="#DejaVuSans-64" transform="translate(312.353516 0)"/>
     <use xlink:href="#DejaVuSans-20" transform="translate(375.830078 0)"/>
     <use xlink:href="#DejaVuSans-72" transform="translate(407.617188 0)"/>
     <use xlink:href="#DejaVuSans-75" transform="translate(448.730469 0)"/>
     <use xlink:href="#DejaVuSans-6e" transform="translate(512.109375 0)"/>
     <use xlink:href="#DejaVuSans-73" transform="translate(575.488281 0)"/>
    </g>
    <!-- acc_gyro / acc / gyro -->
    <g transform="translate(102.890125 135.169619) scale(0.1 -0.1)">
     <defs>
      <path id="DejaVuSans-63" d="M 3122 3366 
L 3122 2828 
Q 2878 2963 2633 3030 
Q 2388 3097 2138 3097 
Q 1578 3097 1268 2742 
Q 959 2388 959 1747 
Q 959 1106 1268 751 
Q 1578 397 2138 397 
Q 2388 397 2633 464 
Q 2878 531 3122 666 
L 3122 134 
Q 2881 22 2623 -34 
Q 2366 -91 2075 -91 
Q 1284 -91 818 406 
Q 353 903 353 1747 
Q 353 2603 823 3093 
Q 1294 3584 2113 3584 
Q 2378 3584 2631 3529 
Q 2884 3475 3122 3366 
z
" transform="scale(0.015625)"/>
      <path id="DejaVuSans-5f" d="M 3263 -1063 
L 3263 -1509 
L -63 -1509 
L -63 -1063 
L 3263 -1063 
z
" transform="scale(0.015625)"/>
      <path id="DejaVuSans-79" d="M 2059 -325 
Q 1816 -950 1584 -1140 
Q 1353 -1331 966 -1331 
L 506 -1331 
L 506 -850 
L 844 -850 
Q 1081 -850 1212 -737 
Q 1344 -625 1503 -206 
L 1606 56 
L 191 3500 
L 800 3500 
L 1894 763 
L 2988 3500 
L 3597 3500 
L 2059 -325 
z
" transform="scale(0.015625)"/>
      <path id="DejaVuSans-2f" d="M 1625 4666 
L 2156 4666 
L 531 -594 
L 0 -594 
L 1625 4666 
z
" transform="scale(0.015625)"/>
     </defs>
     <use xlink:href="#DejaVuSans-61"/>
     <use xlink:href="#DejaVuSans-63" transform="translate(61.279297 0)"/>
     <use xlink:href="#DejaVuSans-63" transform="translate(116.259766 0)"/>
     <use xlink:href="#DejaVuSans-5f" transform="translate(171.240234 0)"/>
     <use xlink:href="#DejaVuSans-67" transform="translate(221.240234 0)"/>
     <use xlink:href="#DejaVuSans-79" transform="translate(284.716797 0)"/>
     <use xlink:href="#DejaVuSans-72" transform="translate(343.896484 0)"/>
     <use xlink:href="#DejaVuSans-6f" transform="translate(382.759766 0)"/>
     <use xlink:href="#DejaVuSans-20" transform="translate(443.941406 0)"/>
     <use xlink:href="#DejaVuSans-2f" transform="translate(475.728516 0)"/>
     <use xlink:href="#DejaVuSans-20" transform="translate(509.419922 0)"/>
     <use xlink:href="#DejaVuSans-61" transform="translate(541.207031 0)"/>
     <use xlink:href="#DejaVuSans-63" transform="translate(602.486328 0)"/>
     <use xlink:href="#DejaVuSans-63" transform="translate(657.466797 0)"/>
     <use xlink:href="#DejaVuSans-20" transform="translate(712.447266 0)"/>
     <use xlink:href="#DejaVuSans-2f" transform="translate(744.234375 0)"/>
     <use xlink:href="#DejaVuSans-20" transform="translate(777.925781 0)"/>
     <use xlink:href="#DejaVuSans-67" transform="translate(809.712891 0)"/>
     <use xlink:href="#DejaVuSans-79" transform="translate(873.189453 0)"/>
     <use xlink:href="#DejaVuSans-72" transform="translate(932.369141 0)"/>
     <use xlink:href="#DejaVuSans-6f" transform="translate(971.232422 0)"/>
    </g>
   </g>
   <g id="text_3">
    <!-- local_eval_split -->
    <g transform="translate(237.382969 123.971806) scale(0.1 -0.1)">
     <defs>
      <path id="DejaVuSans-76" d="M 191 3500 
L 800 3500 
L 1894 563 
L 2988 3500 
L 3597 3500 
L 2284 0 
L 1503 0 
L 191 3500 
z
" transform="scale(0.015625)"/>
      <path id="DejaVuSans-70" d="M 1159 525 
L 1159 -1331 
L 581 -1331 
L 581 3500 
L 1159 3500 
L 1159 2969 
Q 1341 3281 1617 3432 
Q 1894 3584 2278 3584 
Q 2916 3584 3314 3078 
Q 3713 2572 3713 1747 
Q 3713 922 3314 415 
Q 2916 -91 2278 -91 
Q 1894 -91 1617 61 
Q 1341 213 1159 525 
z
M 3116 1747 
Q 3116 2381 2855 2742 
Q 2594 3103 2138 3103 
Q 1681 3103 1420 2742 
Q 1159 2381 1159 1747 
Q 1159 1113 1420 752 
Q 1681 391 2138 391 
Q 2594 391 2855 752 
Q 3116 1113 3116 1747 
z
" transform="scale(0.015625)"/>
     </defs>
     <use xlink:href="#DejaVuSans-6c"/>
     <use xlink:href="#DejaVuSans-6f" transform="translate(27.783203 0)"/>
     <use xlink:href="#DejaVuSans-63" transform="translate(88.964844 0)"/>
     <use xlink:href="#DejaVuSans-61" transform="translate(143.945312 0)"/>
     <use xlink:href="#DejaVuSans-6c" transform="translate(205.224609 0)"/>
     <use xlink:href="#DejaVuSans-5f" transform="translate(233.007812 0)"/>
     <use xlink:href="#DejaVuSans-65" transform="translate(283.007812 0)"/>
     <use xlink:href="#DejaVuSans-76" transform="translate(344.53125 0)"/>
     <use xlink:href="#DejaVuSans-61" transform="translate(403.710938 0)"/>
     <use xlink:href="#DejaVuSans-6c" transform="translate(464.990234 0)"/>
     <use xlink:href="#DejaVuSans-5f" transform="translate(492.773438 0)"/>
     <use xlink:href="#DejaVuSans-73" transform="translate(542.773438 0)"/>
     <use xlink:href="#DejaVuSans-70" transform="translate(594.873047 0)"/>
     <use xlink:href="#DejaVuSans-6c" transform="translate(658.349609 0)"/>
     <use xlink:href="#DejaVuSans-69" transform="translate(686.132812 0)"/>
     <use xlink:href="#DejaVuSans-74" transform="translate(713.916016 0)"/>
    </g>
    <!-- per-client holdout -->
    <g transform="translate(230.947031 135.447744) scale(0.1 -0.1)">
     <defs>
      <path id="DejaVuSans-68" d="M 3513 2113 
L 3513 0 
L 2938 0 
L 2938 2094 
Q 2938 2591 2744 2837 
Q 2550 3084 2163 3084 
Q 1697 3084 1428 2787 
Q 1159 2491 1159 1978 
L 1159 0 
L 581 0 
L 581 4863 
L 1159 4863 
L 1159 2956 
Q 1366 3272 1645 3428 
Q 1925 3584 2291 3584 
Q 2894 3584 3203 3211 
Q 3513 2838 3513 2113 
z
" transform="scale(0.015625)"/>
     </defs>
     <use xlink:href="#DejaVuSans-70"/>
     <use xlink:href="#DejaVuSans-65" transform="translate(63.476562 0)"/>
     <use xlink:href="#DejaVuSans-72" transform="translate(125 0)"/>
     <use xlink:href="#DejaVuSans-2d" transform="translate(159.738281 0)"/>
     <use xlink:href="#DejaVuSans-63" transform="translate(195.822266 0)"/>
     <use xlink:href="#DejaVuSans-6c" transform="translate(250.802734 0)"/>
     <use xlink:href="#DejaVuSans-69" transform="translate(278.585938 0)"/>
     <use xlink:href="#DejaVuSans-65" transform="translate(306.369141 0)"/>
     <use xlink:href="#DejaVuSans-6e" transform="translate(367.892578 0)"/>
     <use xlink:href="#DejaVuSans-74" transform="translate(431.271484 0)"/>
     <use xlink:href="#DejaVuSans-20" transform="translate(470.480469 0)"/>
     <use xlink:href="#DejaVuSans-68" transform="translate(502.267578 0)"/>
     <use xlink:href="#DejaVuSans-6f" transform="translate(565.646484 0)"/>
     <use xlink:href="#DejaVuSans-6c" transform="translate(626.828125 0)"/>
     <use xlink:href="#DejaVuSans-64" transform="translate(654.611328 0)"/>
     <use xlink:href="#DejaVuSans-6f" transform="translate(718.087891 0)"/>
     <use xlink:href="#DejaVuSans-75" transform="translate(779.269531 0)"/>
     <use xlink:href="#DejaVuSans-74" transform="translate(842.648438 0)"/>
    </g>
   </g>
   <g id="text_4">
    <!-- Per-client evaluation -->
    <g transform="translate(337.800125 129.709775) scale(0.1 -0.1)">
     <defs>
      <path id="DejaVuSans-50" d="M 1259 4147 
L 1259 2394 
L 2053 2394 
Q 2494 2394 2734 2622 
Q 2975 2850 2975 3272 
Q 2975 3691 2734 3919 
Q 2494 4147 2053 4147 
L 1259 4147 
z
M 628 4666 
L 2053 4666 
Q 2838 4666 3239 4311 
Q 3641 3956 3641 3272 
Q 3641 2581 3239 2228 
Q 2838 1875 2053 1875 
L 1259 1875 
L 1259 0 
L 628 0 
L 628 4666 
z
" transform="scale(0.015625)"/>
     </defs>
     <use xlink:href="#DejaVuSans-50"/>
     <use xlink:href="#DejaVuSans-65" transform="translate(56.677734 0)"/>
     <use xlink:href="#DejaVuSans-72" transform="translate(118.201172 0)"/>
     <use xlink:href="#DejaVuSans-2d" transform="translate(152.939453 0)"/>
     <use xlink:href="#DejaVuSans-63" transform="translate(189.023438 0)"/>
     <use xlink:href="#DejaVuSans-6c" transform="translate(244.003906 0)"/>
     <use xlink:href="#DejaVuSans-69" transform="translate(271.787109 0)"/>
     <use xlink:href="#DejaVuSans-65" transform="translate(299.570312 0)"/>
     <use xlink:href="#DejaVuSans-6e" transform="translate(361.09375 0)"/>
     <use xlink:href="#DejaVuSans-74" transform="translate(424.472656 0)"/>
     <use xlink:href="#DejaVuSans-20" transform="translate(463.681641 0)"/>
     <use xlink:href="#DejaVuSans-65" transform="translate(495.46875 0)"/>
     <use xlink:href="#DejaVuSans-76" transform="translate(556.992188 0)"/>
     <use xlink:href="#DejaVuSans-61" transform="translate(616.171875 0)"/>
     <use xlink:href="#DejaVuSans-6c" transform="translate(677.451172 0)"/>
     <use xlink:href="#DejaVuSans-75" transform="translate(705.234375 0)"/>
     <use xlink:href="#DejaVuSans-61" transform="translate(768.613281 0)"/>
     <use xlink:href="#DejaVuSans-74" transform="translate(829.892578 0)"/>
     <use xlink:href="#DejaVuSans-69" transform="translate(869.101562 0)"/>
     <use xlink:href="#DejaVuSans-6f" transform="translate(896.884766 0)"/>
     <use xlink:href="#DejaVuSans-6e" transform="translate(958.066406 0)"/>
    </g>
   </g>
   <g id="text_5">
    <!-- Diagnostics -->
    <g transform="translate(473.690719 124.110869) scale(0.1 -0.1)">
     <defs>
      <path id="DejaVuSans-44" d="M 1259 4147 
L 1259 519 
L 2022 519 
Q 2988 519 3436 956 
Q 3884 1394 3884 2338 
Q 3884 3275 3436 3711 
Q 2988 4147 2022 4147 
L 1259 4147 
z
M 628 4666 
L 1925 4666 
Q 3281 4666 3915 4102 
Q 4550 3538 4550 2338 
Q 4550 1131 3912 565 
Q 3275 0 1925 0 
L 628 0 
L 628 4666 
z
" transform="scale(0.015625)"/>
     </defs>
     <use xlink:href="#DejaVuSans-44"/>
     <use xlink:href="#DejaVuSans-69" transform="translate(77.001953 0)"/>
     <use xlink:href="#DejaVuSans-61" transform="translate(104.785156 0)"/>
     <use xlink:href="#DejaVuSans-67" transform="translate(166.064453 0)"/>
     <use xlink:href="#DejaVuSans-6e" transform="translate(229.541016 0)"/>
     <use xlink:href="#DejaVuSans-6f" transform="translate(292.919922 0)"/>
     <use xlink:href="#DejaVuSans-73" transform="translate(354.101562 0)"/>
     <use xlink:href="#DejaVuSans-74" transform="translate(406.201172 0)"/>
     <use xlink:href="#DejaVuSans-69" transform="translate(445.410156 0)"/>
     <use xlink:href="#DejaVuSans-63" transform="translate(473.193359 0)"/>
     <use xlink:href="#DejaVuSans-73" transform="translate(528.173828 0)"/>
    </g>
    <!-- NTR / Worst20 / Std -->
    <g transform="translate(453.709469 135.308681) scale(0.1 -0.1)">
     <defs>
      <path id="DejaVuSans-4e" d="M 628 4666 
L 1478 4666 
L 3547 763 
L 3547 4666 
L 4159 4666 
L 4159 0 
L 3309 0 
L 1241 3903 
L 1241 0 
L 628 0 
L 628 4666 
z
" transform="scale(0.015625)"/>
      <path id="DejaVuSans-54" d="M -19 4666 
L 3928 4666 
L 3928 4134 
L 2272 4134 
L 2272 0 
L 1638 0 
L 1638 4134 
L -19 4134 
L -19 4666 
z
" transform="scale(0.015625)"/>
      <path id="DejaVuSans-57" d="M 213 4666 
L 850 4666 
L 1831 722 
L 2809 4666 
L 3519 4666 
L 4500 722 
L 5478 4666 
L 6119 4666 
L 4947 0 
L 4153 0 
L 3169 4050 
L 2175 0 
L 1381 0 
L 213 4666 
z
" transform="scale(0.015625)"/>
      <path id="DejaVuSans-32" d="M 1228 531 
L 3431 531 
L 3431 0 
L 469 0 
L 469 531 
Q 828 903 1448 1529 
Q 2069 2156 2228 2338 
Q 2531 2678 2651 2914 
Q 2772 3150 2772 3378 
Q 2772 3750 2511 3984 
Q 2250 4219 1831 4219 
Q 1534 4219 1204 4116 
Q 875 4013 500 3803 
L 500 4441 
Q 881 4594 1212 4672 
Q 1544 4750 1819 4750 
Q 2544 4750 2975 4387 
Q 3406 4025 3406 3419 
Q 3406 3131 3298 2873 
Q 3191 2616 2906 2266 
Q 2828 2175 2409 1742 
Q 1991 1309 1228 531 
z
" transform="scale(0.015625)"/>
      <path id="DejaVuSans-30" d="M 2034 4250 
Q 1547 4250 1301 3770 
Q 1056 3291 1056 2328 
Q 1056 1369 1301 889 
Q 1547 409 2034 409 
Q 2525 409 2770 889 
Q 3016 1369 3016 2328 
Q 3016 3291 2770 3770 
Q 2525 4250 2034 4250 
z
M 2034 4750 
Q 2819 4750 3233 4129 
Q 3647 3509 3647 2328 
Q 3647 1150 3233 529 
Q 2819 -91 2034 -91 
Q 1250 -91 836 529 
Q 422 1150 422 2328 
Q 422 3509 836 4129 
Q 1250 4750 2034 4750 
z
" transform="scale(0.015625)"/>
      <path id="DejaVuSans-53" d="M 3425 4513 
L 3425 3897 
Q 3066 4069 2747 4153 
Q 2428 4238 2131 4238 
Q 1616 4238 1336 4038 
Q 1056 3838 1056 3469 
Q 1056 3159 1242 3001 
Q 1428 2844 1947 2747 
L 2328 2669 
Q 3034 2534 3370 2195 
Q 3706 1856 3706 1288 
Q 3706 609 3251 259 
Q 2797 -91 1919 -91 
Q 1588 -91 1214 -16 
Q 841 59 441 206 
L 441 856 
Q 825 641 1194 531 
Q 1563 422 1919 422 
Q 2459 422 2753 634 
Q 3047 847 3047 1241 
Q 3047 1584 2836 1778 
Q 2625 1972 2144 2069 
L 1759 2144 
Q 1053 2284 737 2584 
Q 422 2884 422 3419 
Q 422 4038 858 4394 
Q 1294 4750 2059 4750 
Q 2388 4750 2728 4690 
Q 3069 4631 3425 4513 
z
" transform="scale(0.015625)"/>
     </defs>
     <use xlink:href="#DejaVuSans-4e"/>
     <use xlink:href="#DejaVuSans-54" transform="translate(74.804688 0)"/>
     <use xlink:href="#DejaVuSans-52" transform="translate(135.888672 0)"/>
     <use xlink:href="#DejaVuSans-20" transform="translate(205.371094 0)"/>
     <use xlink:href="#DejaVuSans-2f" transform="translate(237.158203 0)"/>
     <use xlink:href="#DejaVuSans-20" transform="translate(270.849609 0)"/>
     <use xlink:href="#DejaVuSans-57" transform="translate(302.636719 0)"/>
     <use xlink:href="#DejaVuSans-6f" transform="translate(395.638672 0)"/>
     <use xlink:href="#DejaVuSans-72" transform="translate(456.820312 0)"/>
     <use xlink:href="#DejaVuSans-73" transform="translate(497.933594 0)"/>
     <use xlink:href="#DejaVuSans-74" transform="translate(550.033203 0)"/>
     <use xlink:href="#DejaVuSans-32" transform="translate(589.242188 0)"/>
     <use xlink:href="#DejaVuSans-30" transform="translate(652.865234 0)"/>
     <use xlink:href="#DejaVuSans-20" transform="translate(716.488281 0)"/>
     <use xlink:href="#DejaVuSans-2f" transform="translate(748.275391 0)"/>
     <use xlink:href="#DejaVuSans-20" transform="translate(781.966797 0)"/>
     <use xlink:href="#DejaVuSans-53" transform="translate(813.753906 0)"/>
     <use xlink:href="#DejaVuSans-74" transform="translate(877.230469 0)"/>
     <use xlink:href="#DejaVuSans-64" transform="translate(916.439453 0)"/>
    </g>
   </g>
   <g id="text_6">
    <!-- Findings &amp; Method -->
    <g transform="translate(563.4275 124.110869) scale(0.1 -0.1)">
     <defs>
      <path id="DejaVuSans-26" d="M 1556 2509 
Q 1272 2256 1139 2004 
Q 1006 1753 1006 1478 
Q 1006 1022 1337 719 
Q 1669 416 2169 416 
Q 2466 416 2725 514 
Q 2984 613 3213 813 
L 1556 2509 
z
M 1997 2859 
L 3584 1234 
Q 3769 1513 3872 1830 
Q 3975 2147 3994 2503 
L 4575 2503 
Q 4538 2091 4375 1687 
Q 4213 1284 3922 891 
L 4794 0 
L 4006 0 
L 3559 459 
Q 3234 181 2878 45 
Q 2522 -91 2113 -91 
Q 1359 -91 881 339 
Q 403 769 403 1441 
Q 403 1841 612 2192 
Q 822 2544 1241 2853 
Q 1091 3050 1012 3245 
Q 934 3441 934 3628 
Q 934 4134 1281 4442 
Q 1628 4750 2203 4750 
Q 2463 4750 2720 4694 
Q 2978 4638 3244 4525 
L 3244 3956 
Q 2972 4103 2725 4179 
Q 2478 4256 2266 4256 
Q 1938 4256 1733 4082 
Q 1528 3909 1528 3634 
Q 1528 3475 1620 3314 
Q 1713 3153 1997 2859 
z
" transform="scale(0.015625)"/>
     </defs>
     <use xlink:href="#DejaVuSans-46"/>
     <use xlink:href="#DejaVuSans-69" transform="translate(50.269531 0)"/>
     <use xlink:href="#DejaVuSans-6e" transform="translate(78.052734 0)"/>
     <use xlink:href="#DejaVuSans-64" transform="translate(141.431641 0)"/>
     <use xlink:href="#DejaVuSans-69" transform="translate(204.908203 0)"/>
     <use xlink:href="#DejaVuSans-6e" transform="translate(232.691406 0)"/>
     <use xlink:href="#DejaVuSans-67" transform="translate(296.070312 0)"/>
     <use xlink:href="#DejaVuSans-73" transform="translate(359.546875 0)"/>
     <use xlink:href="#DejaVuSans-20" transform="translate(411.646484 0)"/>
     <use xlink:href="#DejaVuSans-26" transform="translate(443.433594 0)"/>
     <use xlink:href="#DejaVuSans-20" transform="translate(521.412109 0)"/>
     <use xlink:href="#DejaVuSans-4d" transform="translate(553.199219 0)"/>
     <use xlink:href="#DejaVuSans-65" transform="translate(639.478516 0)"/>
     <use xlink:href="#DejaVuSans-74" transform="translate(701.001953 0)"/>
     <use xlink:href="#DejaVuSans-68" transform="translate(740.210938 0)"/>
     <use xlink:href="#DejaVuSans-6f" transform="translate(803.589844 0)"/>
     <use xlink:href="#DejaVuSans-64" transform="translate(864.771484 0)"/>
    </g>
    <!-- no-att + loss reliability -->
    <g transform="translate(552.992344 135.308681) scale(0.1 -0.1)">
     <defs>
      <path id="DejaVuSans-2b" d="M 2944 4013 
L 2944 2272 
L 4684 2272 
L 4684 1741 
L 2944 1741 
L 2944 0 
L 2419 0 
L 2419 1741 
L 678 1741 
L 678 2272 
L 2419 2272 
L 2419 4013 
L 2944 4013 
z
" transform="scale(0.015625)"/>
      <path id="DejaVuSans-62" d="M 3116 1747 
Q 3116 2381 2855 2742 
Q 2594 3103 2138 3103 
Q 1681 3103 1420 2742 
Q 1159 2381 1159 1747 
Q 1159 1113 1420 752 
Q 1681 391 2138 391 
Q 2594 391 2855 752 
Q 3116 1113 3116 1747 
z
M 1159 2969 
Q 1341 3281 1617 3432 
Q 1894 3584 2278 3584 
Q 2916 3584 3314 3078 
Q 3713 2572 3713 1747 
Q 3713 922 3314 415 
Q 2916 -91 2278 -91 
Q 1894 -91 1617 61 
Q 1341 213 1159 525 
L 1159 0 
L 581 0 
L 581 4863 
L 1159 4863 
L 1159 2969 
z
" transform="scale(0.015625)"/>
     </defs>
     <use xlink:href="#DejaVuSans-6e"/>
     <use xlink:href="#DejaVuSans-6f" transform="translate(63.378906 0)"/>
     <use xlink:href="#DejaVuSans-2d" transform="translate(126.435547 0)"/>
     <use xlink:href="#DejaVuSans-61" transform="translate(162.519531 0)"/>
     <use xlink:href="#DejaVuSans-74" transform="translate(223.798828 0)"/>
     <use xlink:href="#DejaVuSans-74" transform="translate(263.007812 0)"/>
     <use xlink:href="#DejaVuSans-20" transform="translate(302.216797 0)"/>
     <use xlink:href="#DejaVuSans-2b" transform="translate(334.003906 0)"/>
     <use xlink:href="#DejaVuSans-20" transform="translate(417.792969 0)"/>
     <use xlink:href="#DejaVuSans-6c" transform="translate(449.580078 0)"/>
     <use xlink:href="#DejaVuSans-6f" transform="translate(477.363281 0)"/>
     <use xlink:href="#DejaVuSans-73" transform="translate(538.544922 0)"/>
     <use xlink:href="#DejaVuSans-73" transform="translate(590.644531 0)"/>
     <use xlink:href="#DejaVuSans-20" transform="translate(642.744141 0)"/>
     <use xlink:href="#DejaVuSans-72" transform="translate(674.53125 0)"/>
     <use xlink:href="#DejaVuSans-65" transform="translate(713.394531 0)"/>
     <use xlink:href="#DejaVuSans-6c" transform="translate(774.917969 0)"/>
     <use xlink:href="#DejaVuSans-69" transform="translate(802.701172 0)"/>
     <use xlink:href="#DejaVuSans-61" transform="translate(830.484375 0)"/>
     <use xlink:href="#DejaVuSans-62" transform="translate(891.763672 0)"/>
     <use xlink:href="#DejaVuSans-69" transform="translate(955.240234 0)"/>
     <use xlink:href="#DejaVuSans-6c" transform="translate(983.023438 0)"/>
     <use xlink:href="#DejaVuSans-69" transform="translate(1010.806641 0)"/>
     <use xlink:href="#DejaVuSans-74" transform="translate(1038.589844 0)"/>
     <use xlink:href="#DejaVuSans-79" transform="translate(1077.798828 0)"/>
    </g>
   </g>
   <g id="text_7">
    <!-- Client-level Negative Transfer Diagnosis Pipeline -->
    <g transform="translate(135.444141 43.213909) scale(0.15 -0.15)">
     <defs>
      <path id="DejaVuSans-Bold-43" d="M 4288 256 
Q 3956 84 3597 -3 
Q 3238 -91 2847 -91 
Q 1681 -91 1000 561 
Q 319 1213 319 2328 
Q 319 3447 1000 4098 
Q 1681 4750 2847 4750 
Q 3238 4750 3597 4662 
Q 3956 4575 4288 4403 
L 4288 3438 
Q 3953 3666 3628 3772 
Q 3303 3878 2944 3878 
Q 2300 3878 1931 3465 
Q 1563 3053 1563 2328 
Q 1563 1606 1931 1193 
Q 2300 781 2944 781 
Q 3303 781 3628 887 
Q 3953 994 4288 1222 
L 4288 256 
z
" transform="scale(0.015625)"/>
      <path id="DejaVuSans-Bold-6c" d="M 538 4863 
L 1656 4863 
L 1656 0 
L 538 0 
L 538 4863 
z
" transform="scale(0.015625)"/>
      <path id="DejaVuSans-Bold-69" d="M 538 3500 
L 1656 3500 
L 1656 0 
L 538 0 
L 538 3500 
z
M 538 4863 
L 1656 4863 
L 1656 3950 
L 538 3950 
L 538 4863 
z
" transform="scale(0.015625)"/>
      <path id="DejaVuSans-Bold-65" d="M 4031 1759 
L 4031 1441 
L 1416 1441 
Q 1456 1047 1700 850 
Q 1944 653 2381 653 
Q 2734 653 3104 758 
Q 3475 863 3866 1075 
L 3866 213 
Q 3469 63 3072 -14 
Q 2675 -91 2278 -91 
Q 1328 -91 801 392 
Q 275 875 275 1747 
Q 275 2603 792 3093 
Q 1309 3584 2216 3584 
Q 3041 3584 3536 3087 
Q 4031 2591 4031 1759 
z
M 2881 2131 
Q 2881 2450 2695 2645 
Q 2509 2841 2209 2841 
Q 1884 2841 1681 2658 
Q 1478 2475 1428 2131 
L 2881 2131 
z
" transform="scale(0.015625)"/>
      <path id="DejaVuSans-Bold-6e" d="M 4056 2131 
L 4056 0 
L 2931 0 
L 2931 347 
L 2931 1631 
Q 2931 2084 2911 2256 
Q 2891 2428 2841 2509 
Q 2775 2619 2662 2680 
Q 2550 2741 2406 2741 
Q 2056 2741 1856 2470 
Q 1656 2200 1656 1722 
L 1656 0 
L 538 0 
L 538 3500 
L 1656 3500 
L 1656 2988 
Q 1909 3294 2193 3439 
Q 2478 3584 2822 3584 
Q 3428 3584 3742 3212 
Q 4056 2841 4056 2131 
z
" transform="scale(0.015625)"/>
      <path id="DejaVuSans-Bold-74" d="M 1759 4494 
L 1759 3500 
L 2913 3500 
L 2913 2700 
L 1759 2700 
L 1759 1216 
Q 1759 972 1856 886 
Q 1953 800 2241 800 
L 2816 800 
L 2816 0 
L 1856 0 
Q 1194 0 917 276 
Q 641 553 641 1216 
L 641 2700 
L 84 2700 
L 84 3500 
L 641 3500 
L 641 4494 
L 1759 4494 
z
" transform="scale(0.015625)"/>
      <path id="DejaVuSans-Bold-2d" d="M 347 2297 
L 2309 2297 
L 2309 1388 
L 347 1388 
L 347 2297 
z
" transform="scale(0.015625)"/>
      <path id="DejaVuSans-Bold-76" d="M 97 3500 
L 1216 3500 
L 2088 1081 
L 2956 3500 
L 4078 3500 
L 2700 0 
L 1472 0 
L 97 3500 
z
" transform="scale(0.015625)"/>
      <path id="DejaVuSans-Bold-20" transform="scale(0.015625)"/>
      <path id="DejaVuSans-Bold-4e" d="M 588 4666 
L 1931 4666 
L 3628 1466 
L 3628 4666 
L 4769 4666 
L 4769 0 
L 3425 0 
L 1728 3200 
L 1728 0 
L 588 0 
L 588 4666 
z
" transform="scale(0.015625)"/>
      <path id="DejaVuSans-Bold-67" d="M 2919 594 
Q 2688 288 2409 144 
Q 2131 0 1766 0 
Q 1125 0 706 504 
Q 288 1009 288 1791 
Q 288 2575 706 3076 
Q 1125 3578 1766 3578 
Q 2131 3578 2409 3434 
Q 2688 3291 2919 2981 
L 2919 3500 
L 4044 3500 
L 4044 353 
Q 4044 -491 3511 -936 
Q 2978 -1381 1966 -1381 
Q 1638 -1381 1331 -1331 
Q 1025 -1281 716 -1178 
L 716 -306 
Q 1009 -475 1290 -558 
Q 1572 -641 1856 -641 
Q 2406 -641 2662 -400 
Q 2919 -159 2919 353 
L 2919 594 
z
M 2181 2772 
Q 1834 2772 1640 2515 
Q 1447 2259 1447 1791 
Q 1447 1309 1634 1061 
Q 1822 813 2181 813 
Q 2531 813 2725 1069 
Q 2919 1325 2919 1791 
Q 2919 2259 2725 2515 
Q 2531 2772 2181 2772 
z
" transform="scale(0.015625)"/>
      <path id="DejaVuSans-Bold-61" d="M 2106 1575 
Q 1756 1575 1579 1456 
Q 1403 1338 1403 1106 
Q 1403 894 1545 773 
Q 1688 653 1941 653 
Q 2256 653 2472 879 
Q 2688 1106 2688 1447 
L 2688 1575 
L 2106 1575 
z
M 3816 1997 
L 3816 0 
L 2688 0 
L 2688 519 
Q 2463 200 2181 54 
Q 1900 -91 1497 -91 
Q 953 -91 614 226 
Q 275 544 275 1050 
Q 275 1666 698 1953 
Q 1122 2241 2028 2241 
L 2688 2241 
L 2688 2328 
Q 2688 2594 2478 2717 
Q 2269 2841 1825 2841 
Q 1466 2841 1156 2769 
Q 847 2697 581 2553 
L 581 3406 
Q 941 3494 1303 3539 
Q 1666 3584 2028 3584 
Q 2975 3584 3395 3211 
Q 3816 2838 3816 1997 
z
" transform="scale(0.015625)"/>
      <path id="DejaVuSans-Bold-54" d="M 31 4666 
L 4331 4666 
L 4331 3756 
L 2784 3756 
L 2784 0 
L 1581 0 
L 1581 3756 
L 31 3756 
L 31 4666 
z
" transform="scale(0.015625)"/>
      <path id="DejaVuSans-Bold-72" d="M 3138 2547 
Q 2991 2616 2845 2648 
Q 2700 2681 2553 2681 
Q 2122 2681 1889 2404 
Q 1656 2128 1656 1613 
L 1656 0 
L 538 0 
L 538 3500 
L 1656 3500 
L 1656 2925 
Q 1872 3269 2151 3426 
Q 2431 3584 2822 3584 
Q 2878 3584 2943 3579 
Q 3009 3575 3134 3559 
L 3138 2547 
z
" transform="scale(0.015625)"/>
      <path id="DejaVuSans-Bold-73" d="M 3272 3391 
L 3272 2541 
Q 2913 2691 2578 2766 
Q 2244 2841 1947 2841 
Q 1628 2841 1473 2761 
Q 1319 2681 1319 2516 
Q 1319 2381 1436 2309 
Q 1553 2238 1856 2203 
L 2053 2175 
Q 2913 2066 3209 1816 
Q 3506 1566 3506 1031 
Q 3506 472 3093 190 
Q 2681 -91 1863 -91 
Q 1516 -91 1145 -36 
Q 775 19 384 128 
L 384 978 
Q 719 816 1070 734 
Q 1422 653 1784 653 
Q 2113 653 2278 743 
Q 2444 834 2444 1013 
Q 2444 1163 2330 1236 
Q 2216 1309 1875 1350 
L 1678 1375 
Q 931 1469 631 1722 
Q 331 1975 331 2491 
Q 331 3047 712 3315 
Q 1094 3584 1881 3584 
Q 2191 3584 2531 3537 
Q 2872 3491 3272 3391 
z
" transform="scale(0.015625)"/>
      <path id="DejaVuSans-Bold-66" d="M 2841 4863 
L 2841 4128 
L 2222 4128 
Q 1984 4128 1890 4042 
Q 1797 3956 1797 3744 
L 1797 3500 
L 2753 3500 
L 2753 2700 
L 1797 2700 
L 1797 0 
L 678 0 
L 678 2700 
L 122 2700 
L 122 3500 
L 678 3500 
L 678 3744 
Q 678 4316 997 4589 
Q 1316 4863 1984 4863 
L 2841 4863 
z
" transform="scale(0.015625)"/>
      <path id="DejaVuSans-Bold-44" d="M 1791 3756 
L 1791 909 
L 2222 909 
Q 2959 909 3348 1275 
Q 3738 1641 3738 2338 
Q 3738 3031 3350 3393 
Q 2963 3756 2222 3756 
L 1791 3756 
z
M 588 4666 
L 1856 4666 
Q 2919 4666 3439 4514 
Q 3959 4363 4331 4000 
Q 4659 3684 4818 3271 
Q 4978 2859 4978 2338 
Q 4978 1809 4818 1395 
Q 4659 981 4331 666 
Q 3956 303 3431 151 
Q 2906 0 1856 0 
L 588 0 
L 588 4666 
z
" transform="scale(0.015625)"/>
      <path id="DejaVuSans-Bold-6f" d="M 2203 2784 
Q 1831 2784 1636 2517 
Q 1441 2250 1441 1747 
Q 1441 1244 1636 976 
Q 1831 709 2203 709 
Q 2569 709 2762 976 
Q 2956 1244 2956 1747 
Q 2956 2250 2762 2517 
Q 2569 2784 2203 2784 
z
M 2203 3584 
Q 3106 3584 3614 3096 
Q 4122 2609 4122 1747 
Q 4122 884 3614 396 
Q 3106 -91 2203 -91 
Q 1297 -91 786 396 
Q 275 884 275 1747 
Q 275 2609 786 3096 
Q 1297 3584 2203 3584 
z
" transform="scale(0.015625)"/>
      <path id="DejaVuSans-Bold-50" d="M 588 4666 
L 2584 4666 
Q 3475 4666 3951 4270 
Q 4428 3875 4428 3144 
Q 4428 2409 3951 2014 
Q 3475 1619 2584 1619 
L 1791 1619 
L 1791 0 
L 588 0 
L 588 4666 
z
M 1791 3794 
L 1791 2491 
L 2456 2491 
Q 2806 2491 2997 2661 
Q 3188 2831 3188 3144 
Q 3188 3456 2997 3625 
Q 2806 3794 2456 3794 
L 1791 3794 
z
" transform="scale(0.015625)"/>
      <path id="DejaVuSans-Bold-70" d="M 1656 506 
L 1656 -1331 
L 538 -1331 
L 538 3500 
L 1656 3500 
L 1656 2988 
Q 1888 3294 2169 3439 
Q 2450 3584 2816 3584 
Q 3463 3584 3878 3070 
Q 4294 2556 4294 1747 
Q 4294 938 3878 423 
Q 3463 -91 2816 -91 
Q 2450 -91 2169 54 
Q 1888 200 1656 506 
z
M 2400 2772 
Q 2041 2772 1848 2508 
Q 1656 2244 1656 1747 
Q 1656 1250 1848 986 
Q 2041 722 2400 722 
Q 2759 722 2948 984 
Q 3138 1247 3138 1747 
Q 3138 2247 2948 2509 
Q 2759 2772 2400 2772 
z
" transform="scale(0.015625)"/>
     </defs>
     <use xlink:href="#DejaVuSans-Bold-43"/>
     <use xlink:href="#DejaVuSans-Bold-6c" transform="translate(73.388672 0)"/>
     <use xlink:href="#DejaVuSans-Bold-69" transform="translate(107.666016 0)"/>
     <use xlink:href="#DejaVuSans-Bold-65" transform="translate(141.943359 0)"/>
     <use xlink:href="#DejaVuSans-Bold-6e" transform="translate(209.765625 0)"/>
     <use xlink:href="#DejaVuSans-Bold-74" transform="translate(280.957031 0)"/>
     <use xlink:href="#DejaVuSans-Bold-2d" transform="translate(328.759766 0)"/>
     <use xlink:href="#DejaVuSans-Bold-6c" transform="translate(370.263672 0)"/>
     <use xlink:href="#DejaVuSans-Bold-65" transform="translate(404.541016 0)"/>
     <use xlink:href="#DejaVuSans-Bold-76" transform="translate(472.363281 0)"/>
     <use xlink:href="#DejaVuSans-Bold-65" transform="translate(537.548828 0)"/>
     <use xlink:href="#DejaVuSans-Bold-6c" transform="translate(605.371094 0)"/>
     <use xlink:href="#DejaVuSans-Bold-20" transform="translate(639.648438 0)"/>
     <use xlink:href="#DejaVuSans-Bold-4e" transform="translate(674.462891 0)"/>
     <use xlink:href="#DejaVuSans-Bold-65" transform="translate(758.154297 0)"/>
     <use xlink:href="#DejaVuSans-Bold-67" transform="translate(825.976562 0)"/>
     <use xlink:href="#DejaVuSans-Bold-61" transform="translate(897.558594 0)"/>
     <use xlink:href="#DejaVuSans-Bold-74" transform="translate(965.039062 0)"/>
     <use xlink:href="#DejaVuSans-Bold-69" transform="translate(1012.841797 0)"/>
     <use xlink:href="#DejaVuSans-Bold-76" transform="translate(1047.119141 0)"/>
     <use xlink:href="#DejaVuSans-Bold-65" transform="translate(1112.304688 0)"/>
     <use xlink:href="#DejaVuSans-Bold-20" transform="translate(1180.126953 0)"/>
     <use xlink:href="#DejaVuSans-Bold-54" transform="translate(1214.941406 0)"/>
     <use xlink:href="#DejaVuSans-Bold-72" transform="translate(1272.154297 0)"/>
     <use xlink:href="#DejaVuSans-Bold-61" transform="translate(1321.470703 0)"/>
     <use xlink:href="#DejaVuSans-Bold-6e" transform="translate(1388.951172 0)"/>
     <use xlink:href="#DejaVuSans-Bold-73" transform="translate(1460.142578 0)"/>
     <use xlink:href="#DejaVuSans-Bold-66" transform="translate(1519.664062 0)"/>
     <use xlink:href="#DejaVuSans-Bold-65" transform="translate(1563.169922 0)"/>
     <use xlink:href="#DejaVuSans-Bold-72" transform="translate(1630.992188 0)"/>
     <use xlink:href="#DejaVuSans-Bold-20" transform="translate(1680.308594 0)"/>
     <use xlink:href="#DejaVuSans-Bold-44" transform="translate(1715.123047 0)"/>
     <use xlink:href="#DejaVuSans-Bold-69" transform="translate(1798.130859 0)"/>
     <use xlink:href="#DejaVuSans-Bold-61" transform="translate(1832.408203 0)"/>
     <use xlink:href="#DejaVuSans-Bold-67" transform="translate(1899.888672 0)"/>
     <use xlink:href="#DejaVuSans-Bold-6e" transform="translate(1971.470703 0)"/>
     <use xlink:href="#DejaVuSans-Bold-6f" transform="translate(2042.662109 0)"/>
     <use xlink:href="#DejaVuSans-Bold-73" transform="translate(2111.363281 0)"/>
     <use xlink:href="#DejaVuSans-Bold-69" transform="translate(2170.884766 0)"/>
     <use xlink:href="#DejaVuSans-Bold-73" transform="translate(2205.162109 0)"/>
     <use xlink:href="#DejaVuSans-Bold-20" transform="translate(2264.683594 0)"/>
     <use xlink:href="#DejaVuSans-Bold-50" transform="translate(2299.498047 0)"/>
     <use xlink:href="#DejaVuSans-Bold-69" transform="translate(2372.789062 0)"/>
     <use xlink:href="#DejaVuSans-Bold-70" transform="translate(2407.066406 0)"/>
     <use xlink:href="#DejaVuSans-Bold-65" transform="translate(2478.648438 0)"/>
     <use xlink:href="#DejaVuSans-Bold-6c" transform="translate(2546.470703 0)"/>
     <use xlink:href="#DejaVuSans-Bold-69" transform="translate(2580.748047 0)"/>
     <use xlink:href="#DejaVuSans-Bold-6e" transform="translate(2615.025391 0)"/>
     <use xlink:href="#DejaVuSans-Bold-65" transform="translate(2686.216797 0)"/>
    </g>
   </g>
   <g id="text_8">
    <!-- Goal: reveal client-level degradation that can be hidden by global average metrics -->
    <g transform="translate(114.361875 228.447152) scale(0.11 -0.11)">
     <defs>
      <path id="DejaVuSans-47" d="M 3809 666 
L 3809 1919 
L 2778 1919 
L 2778 2438 
L 4434 2438 
L 4434 434 
Q 4069 175 3628 42 
Q 3188 -91 2688 -91 
Q 1594 -91 976 548 
Q 359 1188 359 2328 
Q 359 3472 976 4111 
Q 1594 4750 2688 4750 
Q 3144 4750 3555 4637 
Q 3966 4525 4313 4306 
L 4313 3634 
Q 3963 3931 3569 4081 
Q 3175 4231 2741 4231 
Q 1884 4231 1454 3753 
Q 1025 3275 1025 2328 
Q 1025 1384 1454 906 
Q 1884 428 2741 428 
Q 3075 428 3337 486 
Q 3600 544 3809 666 
z
" transform="scale(0.015625)"/>
      <path id="DejaVuSans-3a" d="M 750 794 
L 1409 794 
L 1409 0 
L 750 0 
L 750 794 
z
M 750 3309 
L 1409 3309 
L 1409 2516 
L 750 2516 
L 750 3309 
z
" transform="scale(0.015625)"/>
     </defs>
     <use xlink:href="#DejaVuSans-47"/>
     <use xlink:href="#DejaVuSans-6f" transform="translate(77.490234 0)"/>
     <use xlink:href="#DejaVuSans-61" transform="translate(138.671875 0)"/>
     <use xlink:href="#DejaVuSans-6c" transform="translate(199.951172 0)"/>
     <use xlink:href="#DejaVuSans-3a" transform="translate(227.734375 0)"/>
     <use xlink:href="#DejaVuSans-20" transform="translate(261.425781 0)"/>
     <use xlink:href="#DejaVuSans-72" transform="translate(293.212891 0)"/>
     <use xlink:href="#DejaVuSans-65" transform="translate(332.076172 0)"/>
     <use xlink:href="#DejaVuSans-76" transform="translate(393.599609 0)"/>
     <use xlink:href="#DejaVuSans-65" transform="translate(452.779297 0)"/>
     <use xlink:href="#DejaVuSans-61" transform="translate(514.302734 0)"/>
     <use xlink:href="#DejaVuSans-6c" transform="translate(575.582031 0)"/>
     <use xlink:href="#DejaVuSans-20" transform="translate(603.365234 0)"/>
     <use xlink:href="#DejaVuSans-63" transform="translate(635.152344 0)"/>
     <use xlink:href="#DejaVuSans-6c" transform="translate(690.132812 0)"/>
     <use xlink:href="#DejaVuSans-69" transform="translate(717.916016 0)"/>
     <use xlink:href="#DejaVuSans-65" transform="translate(745.699219 0)"/>
     <use xlink:href="#DejaVuSans-6e" transform="translate(807.222656 0)"/>
     <use xlink:href="#DejaVuSans-74" transform="translate(870.601562 0)"/>
     <use xlink:href="#DejaVuSans-2d" transform="translate(909.810547 0)"/>
     <use xlink:href="#DejaVuSans-6c" transform="translate(945.894531 0)"/>
     <use xlink:href="#DejaVuSans-65" transform="translate(973.677734 0)"/>
     <use xlink:href="#DejaVuSans-76" transform="translate(1035.201172 0)"/>
     <use xlink:href="#DejaVuSans-65" transform="translate(1094.380859 0)"/>
     <use xlink:href="#DejaVuSans-6c" transform="translate(1155.904297 0)"/>
     <use xlink:href="#DejaVuSans-20" transform="translate(1183.6875 0)"/>
     <use xlink:href="#DejaVuSans-64" transform="translate(1215.474609 0)"/>
     <use xlink:href="#DejaVuSans-65" transform="translate(1278.951172 0)"/>
     <use xlink:href="#DejaVuSans-67" transform="translate(1340.474609 0)"/>
     <use xlink:href="#DejaVuSans-72" transform="translate(1403.951172 0)"/>
     <use xlink:href="#DejaVuSans-61" transform="translate(1445.064453 0)"/>
     <use xlink:href="#DejaVuSans-64" transform="translate(1506.34375 0)"/>
     <use xlink:href="#DejaVuSans-61" transform="translate(1569.820312 0)"/>
     <use xlink:href="#DejaVuSans-74" transform="translate(1631.099609 0)"/>
     <use xlink:href="#DejaVuSans-69" transform="translate(1670.308594 0)"/>
     <use xlink:href="#DejaVuSans-6f" transform="translate(1698.091797 0)"/>
     <use xlink:href="#DejaVuSans-6e" transform="translate(1759.273438 0)"/>
     <use xlink:href="#DejaVuSans-20" transform="translate(1822.652344 0)"/>
     <use xlink:href="#DejaVuSans-74" transform="translate(1854.439453 0)"/>
     <use xlink:href="#DejaVuSans-68" transform="translate(1893.648438 0)"/>
     <use xlink:href="#DejaVuSans-61" transform="translate(1957.027344 0)"/>
     <use xlink:href="#DejaVuSans-74" transform="translate(2018.306641 0)"/>
     <use xlink:href="#DejaVuSans-20" transform="translate(2057.515625 0)"/>
     <use xlink:href="#DejaVuSans-63" transform="translate(2089.302734 0)"/>
     <use xlink:href="#DejaVuSans-61" transform="translate(2144.283203 0)"/>
     <use xlink:href="#DejaVuSans-6e" transform="translate(2205.5625 0)"/>
     <use xlink:href="#DejaVuSans-20" transform="translate(2268.941406 0)"/>
     <use xlink:href="#DejaVuSans-62" transform="translate(2300.728516 0)"/>
     <use xlink:href="#DejaVuSans-65" transform="translate(2364.205078 0)"/>
     <use xlink:href="#DejaVuSans-20" transform="translate(2425.728516 0)"/>
     <use xlink:href="#DejaVuSans-68" transform="translate(2457.515625 0)"/>
     <use xlink:href="#DejaVuSans-69" transform="translate(2520.894531 0)"/>
     <use xlink:href="#DejaVuSans-64" transform="translate(2548.677734 0)"/>
     <use xlink:href="#DejaVuSans-64" transform="translate(2612.154297 0)"/>
     <use xlink:href="#DejaVuSans-65" transform="translate(2675.630859 0)"/>
     <use xlink:href="#DejaVuSans-6e" transform="translate(2737.154297 0)"/>
     <use xlink:href="#DejaVuSans-20" transform="translate(2800.533203 0)"/>
     <use xlink:href="#DejaVuSans-62" transform="translate(2832.320312 0)"/>
     <use xlink:href="#DejaVuSans-79" transform="translate(2895.796875 0)"/>
     <use xlink:href="#DejaVuSans-20" transform="translate(2954.976562 0)"/>
     <use xlink:href="#DejaVuSans-67" transform="translate(2986.763672 0)"/>
     <use xlink:href="#DejaVuSans-6c" transform="translate(3050.240234 0)"/>
     <use xlink:href="#DejaVuSans-6f" transform="translate(3078.023438 0)"/>
     <use xlink:href="#DejaVuSans-62" transform="translate(3139.205078 0)"/>
     <use xlink:href="#DejaVuSans-61" transform="translate(3202.681641 0)"/>
     <use xlink:href="#DejaVuSans-6c" transform="translate(3263.960938 0)"/>
     <use xlink:href="#DejaVuSans-20" transform="translate(3291.744141 0)"/>
     <use xlink:href="#DejaVuSans-61" transform="translate(3323.53125 0)"/>
     <use xlink:href="#DejaVuSans-76" transform="translate(3384.810547 0)"/>
     <use xlink:href="#DejaVuSans-65" transform="translate(3443.990234 0)"/>
     <use xlink:href="#DejaVuSans-72" transform="translate(3505.513672 0)"/>
     <use xlink:href="#DejaVuSans-61" transform="translate(3546.626953 0)"/>
     <use xlink:href="#DejaVuSans-67" transform="translate(3607.90625 0)"/>
     <use xlink:href="#DejaVuSans-65" transform="translate(3671.382812 0)"/>
     <use xlink:href="#DejaVuSans-20" transform="translate(3732.90625 0)"/>
     <use xlink:href="#DejaVuSans-6d" transform="translate(3764.693359 0)"/>
     <use xlink:href="#DejaVuSans-65" transform="translate(3862.105469 0)"/>
     <use xlink:href="#DejaVuSans-74" transform="translate(3923.628906 0)"/>
     <use xlink:href="#DejaVuSans-72" transform="translate(3962.837891 0)"/>
     <use xlink:href="#DejaVuSans-69" transform="translate(4003.951172 0)"/>
     <use xlink:href="#DejaVuSans-63" transform="translate(4031.734375 0)"/>
     <use xlink:href="#DejaVuSans-73" transform="translate(4086.714844 0)"/>
    </g>
   </g>
  </g>
 </g>
 <defs>
  <clipPath id="p086ca9689a">
   <rect x="7.2" y="7.2" width="669.6" height="266.112"/>
  </clipPath>
 </defs>
</svg>
